<svg width="50" height="49" viewBox="0 0 50 49" fill="none" xmlns="http://www.w3.org/2000/svg">
<g clip-path="url(#clip0_5081_2306)">
<path d="M15.4714 22.8432C14.8088 22.7536 14.2502 22.9321 13.8451 23.5008C13.2941 24.2741 13.4083 25.3777 13.9309 26.1338C14.0057 26.2503 14.1145 26.3409 14.2425 26.3935C14.6224 26.5891 15.0623 26.6335 15.4735 26.5177C15.8848 26.4019 16.2369 26.1346 16.4589 25.7695C16.7303 25.3565 16.707 24.9126 16.7227 24.4223C16.716 24.2823 16.6909 24.1438 16.6479 24.0104C16.4741 23.421 16.1341 22.9329 15.4714 22.8432Z" fill="url(#paint0_linear_5081_2306)"/>
<path d="M33.5059 25.7067C33.524 26.0188 33.6306 26.2953 33.9541 26.4129C34.2732 26.544 34.6307 26.5461 34.9513 26.4187C35.2719 26.2913 35.5304 26.0443 35.6724 25.7299C35.9471 25.1415 36.0541 24.4887 35.9816 23.8434C35.8747 22.6807 35.2022 22.2967 34.1066 22.3323C34 22.3421 33.8993 22.3856 33.819 22.4564C33.7387 22.5273 33.683 22.6218 33.66 22.7264C33.6054 22.8852 33.5738 23.0511 33.5662 23.2189C33.5436 23.5888 33.5479 23.9649 33.537 24.335L33.5059 25.7067Z" fill="url(#paint1_linear_5081_2306)"/>
<path d="M25.531 22.591C24.8758 22.4536 24.3355 22.5554 23.8837 23.1134C23.3276 23.8003 23.3044 24.7914 23.7054 25.5947C23.762 25.735 23.8507 25.86 23.9643 25.9599C24.0779 26.0598 24.2132 26.1317 24.3596 26.1699C25.4341 26.4636 26.2774 26.0878 26.6293 24.975C26.6848 24.7675 26.7138 24.5538 26.7156 24.3389C26.7168 24.1723 26.6966 24.0062 26.6555 23.8447C26.5057 23.2192 26.1862 22.7281 25.531 22.591Z" fill="#E1261C"/>
<path d="M47.6078 13.219C47.5718 13.1428 47.5205 13.0747 47.4573 13.0189C47.394 12.9632 47.32 12.9209 47.2399 12.8948C47.1597 12.8686 47.0751 12.8591 46.9911 12.8668C46.9071 12.8745 46.8256 12.8992 46.7515 12.9395C45.7489 13.4876 44.6478 13.8319 43.5115 13.9528C42.3753 14.0736 41.2264 13.9685 40.1309 13.6435C39.0355 13.3185 38.0151 12.7801 37.1286 12.0592C36.242 11.3384 35.5068 10.4493 34.9652 9.44314C34.8866 9.30026 34.7548 9.19414 34.5984 9.14783C34.4421 9.10152 34.2737 9.11874 34.13 9.19576C31.9704 10.3167 29.4989 10.686 27.106 10.2451C24.7131 9.80431 22.5354 8.57856 20.9171 6.76163C19.3459 5.00237 18.3884 2.7805 18.1887 0.43023C18.1831 0.36034 18.1618 0.292604 18.1265 0.232035C18.0912 0.171466 18.0427 0.119616 17.9846 0.0803225C17.9266 0.0410292 17.8604 0.0152987 17.7911 0.0050359C17.7217 -0.00522693 17.6509 0.000240624 17.584 0.0210338C12.721 1.53279 8.43585 4.49382 5.30196 8.50783C2.16807 12.5218 0.334976 17.3973 0.0480255 22.4817C-0.238925 27.5661 1.03395 32.6169 3.69631 36.958C6.35866 41.2992 10.2835 44.7235 14.9454 46.7729C19.6074 48.8222 24.7841 49.3987 29.7826 48.4251C34.7812 47.4516 39.3632 44.9745 42.9153 41.3254C46.4675 37.6764 48.8203 33.0293 49.6589 28.0064C50.4975 22.9834 49.7819 17.8241 47.6078 13.219ZM9.79761 25.8476C9.80059 26.0243 9.73614 26.1955 9.61738 26.3263C9.49862 26.4572 9.33446 26.5379 9.15831 26.552C8.74448 26.6339 8.2744 26.67 7.84475 26.7421C7.68513 26.7625 7.52913 26.805 7.38127 26.8685C7.20947 26.9417 7.06565 27.068 6.97094 27.2289C6.87623 27.3898 6.83562 27.5769 6.85509 27.7626C6.88023 28.2355 6.97117 28.6983 6.99009 29.1621C7.01229 29.7046 6.77528 29.9873 6.24039 30.0547C5.83588 30.1057 5.40085 30.1382 5.0003 30.1478C4.47508 30.1604 4.21029 29.9722 4.14062 29.4372C3.98533 28.2446 3.88801 27.0151 3.75226 25.814C3.7521 25.8123 3.748 25.8154 3.74779 25.8136C3.63201 24.6977 3.51305 23.5804 3.39969 22.464C3.38096 22.3379 3.3724 22.2104 3.37409 22.0828C3.36907 21.931 3.41861 21.7825 3.51373 21.6641C3.60885 21.5456 3.74325 21.4652 3.89257 21.4374C4.00847 21.4097 4.12651 21.3918 4.24543 21.3839C5.6362 21.2341 7.03067 21.1001 8.42304 20.9673C8.60659 20.9342 8.79529 20.9434 8.97475 20.9943C9.07153 21.025 9.16121 21.0747 9.23854 21.1405C9.31588 21.2062 9.37932 21.2868 9.42515 21.3774C9.53713 21.744 9.58923 22.1262 9.57947 22.5094C9.57431 22.6823 9.51141 22.8485 9.40078 22.9816C9.29016 23.1146 9.13818 23.2068 8.96908 23.2434C8.65723 23.3241 8.33966 23.3808 8.01915 23.4131C7.60882 23.4787 7.15631 23.5051 6.76407 23.5797C6.70633 23.5819 6.64974 23.5966 6.59823 23.6228C6.54672 23.649 6.50151 23.6861 6.46573 23.7314C6.42995 23.7768 6.40446 23.8294 6.391 23.8856C6.37755 23.9418 6.37646 24.0003 6.38781 24.057C6.42174 24.3708 6.54251 24.5357 6.86401 24.5524C7.20064 24.5461 7.53649 24.5178 7.86944 24.4677C8.25419 24.4351 8.6381 24.3591 9.03434 24.3387C9.43057 24.3184 9.68342 24.4841 9.74393 24.8947C9.79637 25.2095 9.81437 25.529 9.79761 25.8476ZM15.2943 29.2087C12.6036 29.3673 10.662 27.737 10.4395 25.0013C10.3841 24.3896 10.4529 23.7731 10.6417 23.1887C10.8305 22.6043 11.1354 22.064 11.5382 21.6004C11.941 21.1368 12.4333 20.7593 12.9855 20.4907C13.5378 20.222 14.1387 20.0678 14.7521 20.0371C17.5061 19.8923 19.5776 21.6999 19.6478 24.4649C19.6944 25.6699 19.263 26.8446 18.4476 27.733C17.6322 28.6215 16.4989 29.1519 15.2943 29.2087ZM25.0036 28.934C22.3039 28.9266 20.4187 27.0817 20.367 24.3259C20.3183 21.7277 22.3483 19.7097 24.9713 19.7361C27.7092 19.7638 29.7085 21.6832 29.6766 24.4547C29.6472 27.0074 27.5566 28.941 25.0036 28.934ZM38.1324 27.1872C37.4972 28.3401 36.4866 28.861 35.1839 28.9106C33.8811 28.9603 32.5642 28.8729 31.2504 28.8301C30.7909 28.8152 30.5369 28.5075 30.5311 28.0256C30.519 27.0083 30.5553 25.9261 30.568 24.895C30.5693 24.7945 30.5725 24.6892 30.5732 24.5899C30.5732 24.587 30.581 24.5913 30.5816 24.5894C30.5977 23.4744 30.6149 22.3579 30.6595 21.2439C30.6645 21.0667 30.6925 20.891 30.743 20.7211C30.7757 20.5668 30.8572 20.4271 30.9753 20.3226C31.0935 20.2181 31.2421 20.1544 31.3993 20.1409C32.6081 20.0117 33.8276 20.0197 35.0347 20.1646C35.5956 20.215 36.1484 20.3336 36.6806 20.5177C37.1168 20.6692 37.5117 20.9202 37.8339 21.2509C38.1561 21.5816 38.3968 21.9829 38.5368 22.4229C39.0485 24.1303 38.9976 25.617 38.1324 27.1872ZM47.0238 23.0049C46.3726 23.9225 45.6795 24.7999 45.0206 25.7127C44.7155 26.1304 44.5329 26.6249 44.4935 27.1407C44.4696 27.6499 44.4188 28.1576 44.3414 28.6615C44.2111 29.357 43.8853 29.6034 43.2006 29.6785C43.0944 29.6902 42.9783 29.675 42.8716 29.6802C42.8663 29.6805 42.8725 29.6965 42.8671 29.6952C42.6321 29.6628 42.3991 29.617 42.1692 29.558C41.6847 29.3886 41.4693 29.0491 41.4364 28.5232C41.4153 28.0967 41.4225 27.6692 41.4579 27.2436C41.5155 26.4819 41.3461 25.7203 40.9712 25.0549C40.4906 24.1534 39.9489 23.2663 39.4564 22.378C39.2419 22.0192 39.0753 21.6338 38.961 21.2317C38.8582 20.824 39.0691 20.5824 39.4875 20.5732C40.0399 20.554 40.593 20.5777 41.1417 20.6441C41.3856 20.6714 41.6172 20.7653 41.8114 20.9154C42.0055 21.0654 42.1547 21.266 42.2425 21.4951C42.4776 21.9897 42.7114 22.5586 42.9447 23.0544C43.0888 23.3605 43.3354 23.4258 43.5513 23.1977C43.7343 22.9665 43.8927 22.7169 44.024 22.453C44.1736 22.2153 44.2631 21.9883 44.3989 21.7638C44.5097 21.5449 44.6798 21.3615 44.8898 21.2347C45.0999 21.1079 45.3414 21.0427 45.5867 21.0466C46.1195 21.0544 46.6508 21.1031 47.1762 21.1921C47.6101 21.2588 47.7735 21.5294 47.635 21.9279C47.4835 22.3141 47.2777 22.6768 47.0238 23.0049Z" fill="#E1261C"/>
</g>
<defs>
<linearGradient id="paint0_linear_5081_2306" x1="14.158" y1="26.3507" x2="16.0558" y2="23.0636" gradientUnits="userSpaceOnUse">
<stop stop-color="#EC3849"/>
<stop offset="1" stop-color="#F35644"/>
</linearGradient>
<linearGradient id="paint1_linear_5081_2306" x1="33.5317" y1="26.182" x2="35.5411" y2="22.7017" gradientUnits="userSpaceOnUse">
<stop stop-color="#EC3849"/>
<stop offset="1" stop-color="#F35644"/>
</linearGradient>
<clipPath id="clip0_5081_2306">
<rect width="50" height="48.9014" fill="white"/>
</clipPath>
</defs>
</svg>
